# xmcd CD database file
#
# Track frame offsets:
#	150
#	28312
#	53340
#	80040
#	110172
#	137690
#	172165
#	192965
#	216740
#	243675
#	278090
#
# Disc length: 4090 seconds
#
# Revision: 0
# Processed by: cddbd v1.4PL0 Copyright (c) Steve Scherf et al.
# Submitted via: CDex 1.50Beta5
#
DISCID=ae0ff80b
DTITLE=Dave Ellis - In The Long Run
DYEAR=1998
DGENRE=Jazz
TTITLE0=Ced and Dunn
TTITLE1=You'd Be So Nice To Come Home To
TTITLE2=Evil Deals
TTITLE3=Pillars
TTITLE4=Meltdown
TTITLE5=Black Narcissus
TTITLE6=Monk's Dream
TTITLE7=Tootie Rootie
TTITLE8=The Waterbearer
TTITLE9=Just Squeeze Me
TTITLE10=In The Long Run
EXTD=YEAR: 1998
EXTT0=
EXTT1=
EXTT2=
EXTT3=
EXTT4=
EXTT5=
EXTT6=
EXTT7=
EXTT8=
EXTT9=
EXTT10=
PLAYORDER=
